<?xml version="1.0" encoding="UTF-8" standalone="no"?>
<!-- Created with Inkscape (http://www.inkscape.org/) -->

<svg
   width="25.4mm"
   height="25.400002mm"
   viewBox="0 0 25.4 25.400001"
   version="1.1"
   id="svg1"
   sodipodi:docname="avouch-96x961.svg"
   inkscape:version="1.3.2 (091e20ef0f, 2023-11-25)"
   xmlns:inkscape="http://www.inkscape.org/namespaces/inkscape"
   xmlns:sodipodi="http://sodipodi.sourceforge.net/DTD/sodipodi-0.dtd"
   xmlns="http://www.w3.org/2000/svg"
   xmlns:svg="http://www.w3.org/2000/svg">
  <sodipodi:namedview
     id="namedview1"
     pagecolor="#ffffff"
     bordercolor="#000000"
     borderopacity="0.25"
     inkscape:showpageshadow="2"
     inkscape:pageopacity="0.0"
     inkscape:pagecheckerboard="0"
     inkscape:deskcolor="#d1d1d1"
     inkscape:document-units="mm"
     inkscape:zoom="8.8421146"
     inkscape:cx="45.916618"
     inkscape:cy="72.946352"
     inkscape:window-width="1920"
     inkscape:window-height="1014"
     inkscape:window-x="0"
     inkscape:window-y="0"
     inkscape:window-maximized="1"
     inkscape:current-layer="svg1" />
  <defs
     id="defs1" />
  <g
     id="layer1"
     transform="matrix(1.0444514,0,0,1.0479544,-96.675931,-142.74736)">
    <g
       id="g2"
       transform="matrix(0.048768,0,0,0.048768,92.563537,136.1385)"
       style="clip-rule:evenodd;fill-rule:evenodd;image-rendering:optimizeQuality;shape-rendering:geometricPrecision;text-rendering:geometricPrecision">
      <path
         style="opacity:1"
         fill="#2b60de"
         d="m 382.5,260.5 c 38.508,77.018 77.508,153.684 117,230 0,3 0,6 0,9 -65.333,0 -130.667,0 -196,0 -17.544,-35.425 -35.211,-70.425 -53,-105 -18.603,34.441 -36.27,69.441 -53,105 -65.333,0 -130.6667,0 -196,0 -0.666973,-2.319 -0.833639,-4.653 -0.5,-7 17.8268,-36.188 36.1601,-72.188 55,-108 8.9847,-13.817 20.1514,-25.483 33.5,-35 40.242,-22.496 80.575,-22.662 121,-0.5 12.414,7.746 22.914,17.579 31.5,29.5 -0.665,-3.666 -2.165,-7 -4.5,-10 -7.644,-16.621 -15.811,-32.955 -24.5,-49 -33.368,-76.992 -35.034,-154.658 -5,-233 10.068,-22.4681 20.901,-44.4681 32.5,-66 2.83,-6.3302 6.163,-12.33019 10,-18 39.023,75.7166 77.69,151.383 116,227 5.093,10.52 10.426,20.853 16,31 z"
         id="path1" />
    </g>
  </g>
</svg>
